<svg width="160" height="160" viewBox="0 0 160 160" fill="none" xmlns="http://www.w3.org/2000/svg">
<circle cx="80" cy="80" r="80" fill="#F0F3FC"/>
<mask id="mask0_255_3375" style="mask-type:alpha" maskUnits="userSpaceOnUse" x="0" y="0" width="160" height="160">
<circle cx="80" cy="80" r="80" fill="#EEF5FF"/>
</mask>
<g mask="url(#mask0_255_3375)">
<path fill-rule="evenodd" clip-rule="evenodd" d="M26.3478 80.7642C25.2432 80.7642 24.3478 81.6596 24.3478 82.7642V157.579C24.3478 158.683 25.2432 159.579 26.3478 159.579H138.29C139.394 159.579 140.29 158.683 140.29 157.579V82.7642C140.29 81.6596 139.394 80.7642 138.29 80.7642H26.3478ZM69.6818 93.9C69.4057 93.9 69.1818 94.1239 69.1818 94.4V106.536C69.1818 106.812 69.4057 107.036 69.6818 107.036H94.9533C95.2294 107.036 95.4533 106.812 95.4533 106.536V94.4C95.4533 94.1239 95.2294 93.9 94.9533 93.9H69.6818Z" fill="#B9C5E0"/>
<path opacity="0.3" d="M69.1823 80.7642H56.0465V74.1963C56.0465 63.3143 64.8681 54.4927 75.7501 54.4927H88.8859C99.7679 54.4927 108.589 63.3143 108.589 74.1963V80.7642H95.4537V74.1963C95.4537 70.569 92.5132 67.6284 88.8859 67.6284H75.7501C72.1228 67.6284 69.1823 70.569 69.1823 74.1963V80.7642Z" fill="#B9C5E0"/>
</g>
</svg>
